<svg width="24" height="24" viewBox="0 0 24 24" fill="none" xmlns="http://www.w3.org/2000/svg">
<path fill-rule="evenodd" clip-rule="evenodd" d="M17.5381 17.7731C19.0555 16.3172 20 14.2689 20 12C20 7.58172 16.4183 4 12 4C7.58172 4 4 7.58172 4 12C4 14.2689 4.94455 16.3172 6.46188 17.7732C6.73437 16.4044 7.8731 15.3546 9.28636 15.2154C9.44281 15.2 9.62854 15.2 10 15.2H14C14.3715 15.2 14.5572 15.2 14.7137 15.2154C16.1269 15.3546 17.2656 16.4044 17.5381 17.7731ZM12 13.6C13.7673 13.6 15.2 12.1673 15.2 10.4C15.2 8.63269 13.7673 7.2 12 7.2C10.2327 7.2 8.80001 8.63269 8.80001 10.4C8.80001 12.1673 10.2327 13.6 12 13.6Z" fill="#B5D3FD"/>
<path d="M17.5382 17.7732C16.1008 19.1524 14.1494 20 12.0001 20C9.85069 20 7.89929 19.1524 6.46191 17.7731C6.73442 16.4044 7.87314 15.3546 9.28639 15.2154C9.44284 15.2 9.62858 15.2 10 15.2H14C14.3715 15.2 14.5573 15.2 14.7137 15.2154C16.127 15.3546 17.2657 16.4044 17.5382 17.7732Z" fill="#2880F8"/>
<path d="M12 13.6C13.7674 13.6 15.2 12.1673 15.2 10.4C15.2 8.6327 13.7674 7.20001 12 7.20001C10.2327 7.20001 8.80005 8.6327 8.80005 10.4C8.80005 12.1673 10.2327 13.6 12 13.6Z" fill="#2880F8"/>
</svg>
